HIERARCHY
ROOT Pelvis
{
	OFFSET 0.000000 0.000000 0.000000
	CHANNELS 6 Xposition Yposition Zposition Xrotation Yrotation Zrotation
	JOINT LeftUpLeg_virtual
	{
		OFFSET 0.000000 0.000000 0.000000
		CHANNELS 3 Xrotation Yrotation Zrotation
		JOINT LeftUpLeg
		{
			OFFSET 18.735201 -5.666702 -4.541200
			CHANNELS 3 Xrotation Yrotation Zrotation
			JOINT LeftLeg
			{
				OFFSET -0.021200 -31.938179 0.493100
				CHANNELS 3 Xrotation Yrotation Zrotation
				JOINT LeftFoot
				{
					OFFSET 0.021200 -31.938179 -4.336299
					CHANNELS 3 Xrotation Yrotation Zrotation
					JOINT LeftToeBase
					{
						OFFSET 0.943001 -26.722000 15.023500
						CHANNELS 3 Xrotation Yrotation Zrotation
						End Site
						{
							OFFSET 0 0 0
						}
					}
				}
			}
		}
	}
	JOINT RightUpLeg_virtual
	{
		OFFSET 0.000000 0.000000 0.000000
		CHANNELS 3 Xrotation Yrotation Zrotation
		JOINT RightUpLeg
		{
			OFFSET -18.735201 -5.666702 -4.541200
			CHANNELS 3 Xrotation Yrotation Zrotation
			JOINT RightLeg
			{
				OFFSET 0.018946 -31.938133 0.493100
				CHANNELS 3 Xrotation Yrotation Zrotation
				JOINT RightFoot
				{
					OFFSET -0.018946 -31.938126 -4.336299
					CHANNELS 3 Xrotation Yrotation Zrotation
					JOINT RightToeBase
					{
						OFFSET -0.943001 -26.722004 15.023500
						CHANNELS 3 Xrotation Yrotation Zrotation
						End Site
						{
							OFFSET 0 0 0
						}
					}
				}
			}
		}
	}
	JOINT Hips_virtual
	{
		OFFSET 0.000000 0.000000 0.000000
		CHANNELS 3 Xrotation Yrotation Zrotation
		JOINT Hips
		{
			OFFSET -0.000000 -0.000000 -0.000000
			CHANNELS 3 Xrotation Yrotation Zrotation
			JOINT Spine
			{
				OFFSET 0.000000 10.199997 -0.299500
				CHANNELS 3 Xrotation Yrotation Zrotation
				JOINT Spine1
				{
					OFFSET 0.000000 11.900002 -1.516600
					CHANNELS 3 Xrotation Yrotation Zrotation
					JOINT Spine2
					{
						OFFSET 0.000000 13.600006 -2.842500
						CHANNELS 3 Xrotation Yrotation Zrotation
						JOINT Neck_virtual
						{
							OFFSET 0.000000 0.000000 0.000000
							CHANNELS 3 Xrotation Yrotation Zrotation
							JOINT Neck
							{
								OFFSET 0.000000 9.624100 -2.890100
								CHANNELS 3 Xrotation Yrotation Zrotation
								JOINT Head
								{
									OFFSET 0.000000 14.068802 -1.351900
									CHANNELS 3 Xrotation Yrotation Zrotation
									End Site
									{
										OFFSET 0 0 0
									}
								}
							}
						}
						JOINT LeftShoulder_virtual
						{
							OFFSET 0.000000 0.000000 0.000000
							CHANNELS 3 Xrotation Yrotation Zrotation
							JOINT LeftShoulder
							{
								OFFSET 15.263000 10.923401 -0.547700
								CHANNELS 3 Xrotation Yrotation Zrotation
								JOINT LeftArm
								{
									OFFSET 25.438599 -2.830597 -13.032500
									CHANNELS 3 Xrotation Yrotation Zrotation
									JOINT LeftForeArm
									{
										OFFSET 29.960503 0.000000 0.000000
										CHANNELS 3 Xrotation Yrotation Zrotation
										JOINT LeftHand
										{
											OFFSET 27.849251 0.000000 0.000000
											CHANNELS 3 Xrotation Yrotation Zrotation
											End Site
											{
												OFFSET 0 0 0
											}
										}
									}
								}
							}
						}
						JOINT RightShoulder_virtual
						{
							OFFSET 0.000000 0.000000 0.000000
							CHANNELS 3 Xrotation Yrotation Zrotation
							JOINT RightShoulder
							{
								OFFSET -15.263000 10.923401 -0.547700
								CHANNELS 3 Xrotation Yrotation Zrotation
								JOINT RightArm
								{
									OFFSET -25.438599 -2.830597 -13.032500
									CHANNELS 3 Xrotation Yrotation Zrotation
									JOINT RightForeArm
									{
										OFFSET -29.960503 0.000000 0.000000
										CHANNELS 3 Xrotation Yrotation Zrotation
										JOINT RightHand
										{
											OFFSET -27.849251 0.000000 0.000000
											CHANNELS 3 Xrotation Yrotation Zrotation
											End Site
											{
												OFFSET 0 0 0
											}
										}
									}
								}
							}
						}
					}
				}
			}
		}
	}
}
MOTION
Frames: 5
Frame Time: 0.03333333
3.107368 75.332146 -52.585182 0.000000 0.000000 0.000000 14.353252 -70.465306 16.172396 -40.019117 -10.881240 18.882236 52.257590 -0.933877 -6.854066 -5.949223 2.446677 -15.074660 0.000000 0.000000 0.000000 2.171401 -51.916077 -0.818324 -35.766251 -16.807873 -23.631538 58.841943 10.508591 -4.232308 -6.727918 7.579750 15.124383 0.000000 0.000000 0.000000 15.705562 -9.448895 3.293951 -22.375555 -72.563376 -8.996683 12.946580 22.854691 -6.240416 10.013162 12.161824 -6.277755 0.000000 0.000000 0.000000 12.248665 12.483482 -5.908657 0.504613 3.834211 -0.003430 0.000000 0.000000 0.000000 12.465250 14.312393 -6.134329 2.195648 9.048501 -0.301500 -38.077628 -34.844343 -44.882239 168.644078 -85.170949 176.387641 0.000000 0.000000 0.000000 14.072717 13.809535 -7.667617 3.292057 20.660579 -5.507027 -36.259203 5.001891 9.912780 -11.684610 35.577994 2.660496 0.000000 0.000000 0.000000 
3.276751 74.690506 -52.624996 0.000000 0.000000 0.000000 14.190778 -70.184360 16.736265 -40.695988 -11.066988 19.591790 53.310245 -1.410717 -6.865189 -5.251575 2.015213 -15.429742 0.000000 0.000000 0.000000 2.805675 -51.219155 -0.231159 -35.363250 -16.777120 -23.293573 59.461079 10.199867 -4.084892 -6.482871 7.230203 15.156402 0.000000 0.000000 0.000000 16.046918 -9.528451 3.507619 -18.436446 -72.187320 -5.404200 13.328744 22.299070 -6.572481 10.338033 11.869736 -6.528717 0.000000 0.000000 0.000000 12.444294 12.602473 -5.967572 0.545801 4.044885 -0.017729 0.000000 0.000000 0.000000 12.630948 14.018181 -6.299754 2.259897 8.712444 -1.107698 -33.631770 -32.386438 -44.938533 148.153715 -88.580587 154.874977 0.000000 0.000000 0.000000 14.288597 13.719297 -7.528397 3.233820 20.265275 -4.689972 -33.204097 2.150777 12.178240 -10.949744 34.723712 3.577413 0.000000 0.000000 0.000000 
3.441852 74.244255 -52.595879 0.000000 0.000000 0.000000 13.840091 -69.853069 17.056651 -41.373335 -11.204183 20.195705 54.255283 -1.717844 -6.873834 -4.524280 1.720465 -15.686426 0.000000 0.000000 0.000000 3.393633 -50.338296 0.356058 -34.958394 -16.705618 -22.891884 60.045320 9.857651 -3.939341 -6.211389 6.871730 15.146851 0.000000 0.000000 0.000000 16.328517 -9.678206 3.744698 -14.722246 -71.790151 -1.908423 13.676921 21.759017 -6.833318 10.638146 11.584675 -6.734671 0.000000 0.000000 0.000000 12.591334 12.724682 -5.988038 0.573152 4.261013 -0.020808 0.000000 0.000000 0.000000 12.772716 13.740798 -6.437445 2.324844 8.492942 -1.861551 -29.492480 -29.587065 -45.176012 11.668556 -87.383036 17.428051 0.000000 0.000000 0.000000 14.458066 13.624360 -7.351222 3.148130 19.890382 -3.741508 -30.213929 -0.550481 14.631305 -10.289595 34.022812 4.499206 0.000000 0.000000 0.000000 
3.590629 73.971214 -52.509693 0.000000 0.000000 0.000000 13.326861 -69.483105 17.155048 -42.037519 -11.297608 20.691993 55.047831 -1.868646 -6.885465 -3.809109 1.555716 -15.853807 0.000000 0.000000 0.000000 3.908016 -49.310097 0.907369 -34.566051 -16.594144 -22.452522 60.534915 9.492710 -3.790124 -5.958949 6.501785 15.105752 0.000000 0.000000 0.000000 16.545718 -9.901416 4.002543 -11.297268 -71.386596 1.430241 13.988989 21.238985 -7.020448 10.909953 11.309707 -6.893018 0.000000 0.000000 0.000000 12.702190 12.837232 -5.978453 0.592129 4.474532 -0.016901 0.000000 0.000000 0.000000 12.883749 13.477696 -6.551322 2.385753 8.379543 -2.585904 -25.652804 -26.562652 -45.686244 2.672858 -83.525974 7.502602 0.000000 0.000000 0.000000 14.589375 13.522083 -7.140543 3.044339 19.529773 -2.680367 -27.315713 -3.084097 17.216047 -9.708664 33.469464 5.413281 0.000000 0.000000 0.000000 
3.710114 73.848236 -52.372093 0.000000 0.000000 0.000000 12.676879 -69.076176 17.055145 -42.673861 -11.350183 21.083667 55.651067 -1.888019 -6.900726 -3.146941 1.503834 -15.943646 0.000000 0.000000 0.000000 4.328792 -48.169202 1.392061 -34.196582 -16.443921 -22.000867 60.883890 9.114591 -3.633778 -5.761683 6.119294 15.041735 0.000000 0.000000 0.000000 16.697506 -10.197910 4.274656 -8.202077 -70.988984 4.554624 14.264000 20.739849 -7.134291 11.150432 11.045953 -7.002878 0.000000 0.000000 0.000000 12.786526 12.928261 -5.944714 0.607122 4.677777 -0.008927 0.000000 0.000000 0.000000 12.960000 13.225293 -6.644150 2.439735 8.356999 -3.295581 -22.081756 -23.442391 -46.506642 0.448954 -79.596976 4.358762 0.000000 0.000000 0.000000 14.689217 13.409682 -6.900901 2.930395 19.175971 -1.526541 -24.553883 -5.446954 19.872905 -9.216875 33.055134 6.310338 0.000000 0.000000 0.000000 
